<?xml version="1.0" standalone="no"?>
<!DOCTYPE svg PUBLIC "-//W3C//DTD SVG 20010904//EN"
 "http://www.w3.org/TR/2001/REC-SVG-20010904/DTD/svg10.dtd">
<svg version="1.0" xmlns="http://www.w3.org/2000/svg"
 width="332.000000pt" height="155.000000pt" viewBox="0 0 332.000000 155.000000"
 preserveAspectRatio="xMidYMid meet">

<g transform="translate(0.000000,155.000000) scale(0.100000,-0.100000)"
fill="#000000" stroke="none">
<path d="M10 935 l0 -575 1640 0 1640 0 0 575 0 575 -1640 0 -1640 0 0 -575z
m940 0 l0 -535 -450 0 -450 0 0 535 0 535 450 0 450 0 0 -535z m348 36 c3
-102 -10 -131 -62 -131 -37 0 -62 21 -52 45 4 10 16 15 33 13 28 -3 28 -3 31
67 3 85 7 97 29 93 15 -3 18 -16 21 -87z m147 64 c0 -15 -8 -21 -33 -23 -46
-5 -41 -36 6 -40 28 -3 33 -7 30 -25 -2 -17 -11 -23 -35 -25 -36 -4 -47 -32
-14 -32 33 0 51 -11 51 -31 0 -17 -8 -19 -60 -19 l-60 0 0 103 c0 57 3 107 7
111 4 4 30 6 58 4 42 -3 50 -6 50 -23z m143 13 c16 -20 72 -166 72 -188 0 -27
-36 -26 -50 0 -7 14 -21 20 -45 20 -25 0 -35 -5 -40 -20 -7 -21 -39 -27 -50
-10 -5 9 51 167 72 203 7 11 29 8 41 -5z m184 -45 l33 -58 3 35 c4 62 12 80
31 80 15 0 19 -11 25 -55 3 -30 3 -80 0 -110 -6 -49 -9 -55 -30 -55 -19 0 -31
13 -56 58 l-33 57 -5 -55 c-4 -48 -8 -55 -27 -58 -23 -3 -23 -2 -23 101 0 57
3 107 7 110 19 20 44 3 75 -50z m286 41 c45 -31 22 -62 -32 -43 -45 16 -86 -7
-86 -50 0 -46 30 -64 89 -56 47 6 51 5 51 -14 0 -27 -29 -41 -83 -41 -111 0
-151 128 -62 198 33 26 91 29 123 6z m193 -84 c22 -52 37 -100 35 -107 -8 -20
-44 -15 -51 7 -5 15 -15 20 -40 20 -24 0 -38 -6 -45 -20 -12 -22 -46 -27 -52
-8 -3 7 13 57 35 111 52 128 63 128 118 -3z m181 83 c20 -18 24 -73 7 -101 -9
-14 -8 -26 5 -50 18 -36 14 -52 -13 -52 -10 0 -24 15 -34 35 -21 45 -37 45
-37 -1 0 -31 -3 -35 -22 -32 -22 3 -23 8 -26 97 -1 52 -1 100 2 108 8 19 95
17 118 -4z m96 -71 c3 -77 4 -82 25 -82 32 0 51 -15 44 -35 -5 -13 -18 -15
-59 -13 l-53 3 -3 94 c-3 107 1 124 25 119 15 -3 18 -16 21 -86z m278 54 c74
-74 26 -186 -81 -186 -47 0 -71 14 -90 50 -26 50 -20 97 19 136 28 28 42 34
76 34 34 0 48 -6 76 -34z m158 18 c9 -8 16 -22 16 -30 0 -20 -27 -29 -44 -15
-9 8 -16 8 -20 2 -4 -6 7 -17 23 -26 78 -40 64 -135 -19 -135 -40 0 -60 14
-60 43 0 16 5 18 40 12 26 -4 40 -3 40 4 0 6 -18 22 -40 36 -33 21 -40 31 -40
57 0 17 7 40 17 50 20 22 66 24 87 2z"/>
<path d="M662 1265 l-30 -25 -4 -218 c-3 -236 -6 -249 -61 -282 -41 -25 -83
-25 -125 0 -35 22 -47 44 -57 104 -14 85 -107 118 -159 55 -54 -64 -22 -192
69 -278 73 -69 111 -85 210 -85 98 -1 149 20 217 87 79 80 88 117 88 383 l0
226 -29 29 c-37 37 -79 38 -119 4z m98 -30 c7 -8 13 -26 13 -40 0 -51 -56 -74
-95 -38 -22 20 -23 42 -2 71 18 26 65 30 84 7z m18 -295 c-5 -196 -15 -227
-93 -298 -58 -54 -106 -72 -186 -72 -89 1 -194 64 -235 142 -19 37 -19 37 26
36 22 0 47 5 55 12 11 9 20 5 45 -24 56 -64 148 -72 210 -19 54 45 60 67 60
235 l0 153 61 0 61 0 -4 -165z m-433 -82 c15 -44 -25 -85 -71 -74 -31 8 -48
49 -33 77 22 42 91 40 104 -3z"/>
<path d="M1556 945 c-3 -9 0 -15 9 -15 16 0 20 16 6 24 -5 3 -11 -1 -15 -9z"/>
<path d="M2186 951 c-4 -7 -5 -15 -2 -18 9 -9 19 4 14 18 -4 11 -6 11 -12 0z"/>
<path d="M2364 999 c-3 -6 -2 -15 4 -21 13 -13 32 -2 32 18 0 16 -26 19 -36 3z"/>
<path d="M2692 994 c-45 -31 -17 -104 41 -104 28 0 57 32 57 62 0 23 -35 58
-58 58 -10 0 -28 -7 -40 -16z"/>
<path d="M344 155 c0 -50 1 -71 3 -48 2 23 2 64 0 90 -2 26 -3 8 -3 -42z"/>
<path d="M668 233 c-10 -2 -18 -9 -18 -14 0 -15 33 -24 38 -10 3 9 7 9 18 0
11 -9 14 -7 14 10 0 21 -13 24 -52 14z"/>
<path d="M2237 233 c-11 -10 -8 -151 3 -158 6 -4 10 25 10 79 0 86 -1 92 -13
79z"/>
<path d="M77 213 c-11 -11 -8 -48 5 -61 7 -7 22 -12 34 -12 25 0 49 -24 39
-40 -3 -5 -24 -10 -46 -10 -21 0 -39 -4 -39 -10 0 -19 76 -11 94 9 29 32 -2
71 -56 71 -33 0 -19 44 17 51 30 7 30 7 -6 8 -20 0 -39 -2 -42 -6z"/>
<path d="M1310 145 l0 -75 38 0 c49 0 72 24 72 74 0 60 -14 76 -65 76 l-45 0
0 -75z m78 53 c18 -18 15 -95 -4 -102 -45 -17 -54 -9 -54 54 0 56 2 60 23 60
13 0 28 -5 35 -12z"/>
<path d="M2931 152 c-1 -74 10 -95 40 -76 9 5 6 10 -9 15 -27 10 -30 54 -4 68
16 9 16 11 1 23 -9 7 -19 20 -22 28 -3 8 -6 -18 -6 -58z"/>
<path d="M214 155 c-21 -33 -6 -72 31 -81 52 -13 86 53 47 89 -27 24 -59 21
-78 -8z m71 -30 c0 -25 -4 -30 -24 -30 -28 0 -47 25 -38 49 5 12 16 16 34 14
24 -3 28 -8 28 -33z"/>
<path d="M375 167 c-9 -22 0 -61 21 -81 10 -11 28 -15 52 -13 36 4 37 6 40 47
2 23 -2 48 -7 53 -8 8 -11 1 -11 -24 0 -38 -14 -59 -41 -59 -22 0 -31 14 -39
60 -5 27 -9 31 -15 17z"/>
<path d="M526 158 c-22 -31 -21 -38 14 -85 21 -29 27 -43 18 -46 -7 -2 -10 -8
-6 -12 12 -13 36 14 31 34 -3 10 0 22 6 25 21 13 11 23 -18 18 -34 -5 -45 9
-36 45 5 21 10 24 36 21 18 -3 28 -1 26 6 -7 22 -54 18 -71 -6z"/>
<path d="M644 155 c-21 -33 -6 -72 31 -81 52 -13 86 53 47 89 -27 24 -59 21
-78 -8z m71 -30 c0 -23 -5 -31 -21 -33 -27 -4 -47 21 -39 48 5 16 14 20 33 18
23 -2 27 -8 27 -33z"/>
<path d="M788 169 c-26 -15 -24 -75 3 -89 21 -12 69 -6 69 8 0 5 -13 7 -29 4
-16 -2 -32 1 -35 7 -5 7 4 11 26 11 52 0 65 13 44 44 -17 27 -48 33 -78 15z
m60 -26 c2 -9 -7 -13 -27 -13 -30 0 -39 9 -24 24 11 10 46 3 51 -11z"/>
<path d="M911 166 c-17 -20 -2 -46 30 -53 38 -7 37 -23 -1 -23 -16 0 -30 -4
-30 -10 0 -15 56 -12 69 4 17 20 3 44 -27 48 -34 4 -42 28 -8 28 13 0 28 5 31
10 10 15 -51 12 -64 -4z"/>
<path d="M1118 168 c-17 -13 -21 -28 -19 -60 1 -23 37 -41 67 -34 34 9 30 27
-5 20 -16 -4 -32 -1 -35 5 -5 7 3 11 23 11 16 0 36 3 45 6 28 11 -8 64 -44 64
-9 0 -23 -6 -32 -12z m60 -25 c2 -9 -7 -13 -27 -13 -30 0 -39 9 -24 24 11 10
46 3 51 -11z"/>
<path d="M1454 155 c-19 -28 -11 -60 18 -76 22 -12 68 -4 68 11 0 6 -11 8 -24
4 -14 -3 -31 -2 -38 3 -9 5 0 10 27 13 44 6 56 27 30 54 -24 24 -62 20 -81 -9z
m74 -12 c2 -9 -7 -13 -27 -13 -30 0 -39 9 -24 24 11 10 46 3 51 -11z"/>
<path d="M1587 173 c-4 -3 -7 -16 -7 -29 0 -17 7 -24 30 -29 17 -4 30 -11 30
-16 0 -5 -13 -9 -30 -9 -16 0 -30 -5 -30 -11 0 -6 16 -9 38 -7 32 3 37 6 37
28 0 20 -6 26 -27 28 -36 4 -38 32 -3 32 14 0 25 5 25 10 0 11 -53 14 -63 3z"/>
<path d="M1707 162 c-22 -25 -21 -55 2 -76 20 -19 62 -19 68 0 2 6 -8 9 -26 6
-16 -2 -32 1 -35 7 -5 7 7 11 34 11 48 0 62 20 35 50 -23 25 -57 26 -78 2z
m71 -19 c2 -9 -8 -13 -32 -13 -34 0 -44 8 -29 24 11 11 56 2 61 -11z"/>
<path d="M1830 121 c0 -60 16 -61 22 -1 6 64 68 48 68 -17 0 -20 4 -32 10 -28
15 9 12 58 -6 83 -11 17 -24 21 -55 20 l-39 -1 0 -56z"/>
<path d="M1960 175 c0 -9 50 -105 55 -105 10 0 56 91 52 102 -2 8 -14 -3 -27
-24 -25 -42 -32 -42 -50 2 -11 26 -30 42 -30 25z"/>
<path d="M2117 162 c-23 -25 -21 -55 3 -77 25 -23 67 -13 82 20 24 53 -46 100
-85 57z m64 -18 c17 -21 0 -49 -32 -49 -24 0 -36 23 -25 51 7 19 40 18 57 -2z"/>
<path d="M2278 174 c-7 -6 38 -104 47 -104 8 0 57 102 51 107 -3 3 -15 -11
-27 -31 -11 -20 -23 -36 -25 -36 -2 0 -12 16 -22 35 -10 20 -21 33 -24 29z"/>
<path d="M2410 125 c0 -35 4 -54 10 -50 6 3 10 26 10 50 0 24 -4 47 -10 50 -6
4 -10 -15 -10 -50z"/>
<path d="M2450 130 c0 -58 17 -68 22 -12 3 32 6 37 28 37 22 0 26 -5 31 -45 5
-47 16 -39 21 15 2 25 8 30 28 30 21 0 25 -5 28 -35 5 -52 22 -62 22 -13 0 61
-34 88 -80 63 -13 -7 -21 -7 -25 0 -3 5 -22 10 -41 10 l-34 0 0 -50z"/>
<path d="M2664 155 c-19 -28 -11 -60 18 -76 22 -12 68 -4 68 11 0 6 -11 8 -24
4 -14 -3 -31 -2 -38 3 -9 5 0 10 27 13 44 6 56 27 30 54 -24 24 -62 20 -81 -9z
m74 -12 c2 -9 -7 -13 -27 -13 -30 0 -39 9 -24 24 11 10 46 3 51 -11z"/>
<path d="M2790 128 c0 -56 17 -65 22 -10 3 34 6 37 33 37 28 0 30 -3 33 -43 4
-49 22 -47 22 2 0 43 -26 66 -73 64 l-37 -1 0 -49z"/>
<path d="M3027 162 c-23 -25 -21 -55 3 -77 25 -23 67 -13 82 20 24 53 -46 100
-85 57z m64 -18 c17 -21 0 -49 -32 -49 -24 0 -36 23 -25 51 7 19 40 18 57 -2z"/>
</g>
</svg>
